<?xml version="1.0" standalone="no"?>
<!DOCTYPE svg PUBLIC "-//W3C//DTD SVG 20010904//EN"
 "http://www.w3.org/TR/2001/REC-SVG-20010904/DTD/svg10.dtd">
<svg version="1.0" xmlns="http://www.w3.org/2000/svg"
 width="700.000000pt" height="700.000000pt" viewBox="0 0 700.000000 700.000000"
 preserveAspectRatio="xMidYMid meet">
<metadata>
Created by potrace 1.11, written by Peter Selinger 2001-2013
</metadata>
<g transform="translate(0.000000,700.000000) scale(0.100000,-0.100000)"
fill="#000000" stroke="none">
<path d="M3255 6664 c-136 -14 -304 -38 -390 -56 -1206 -248 -2163 -1173
-2449 -2368 -107 -445 -114 -946 -20 -1394 258 -1225 1224 -2191 2450 -2450
238 -50 348 -60 654 -60 306 0 416 10 654 60 946 200 1748 821 2185 1691 155
311 251 626 308 1008 25 174 25 629 0 810 -53 372 -152 696 -310 1011 -474
946 -1367 1584 -2422 1729 -114 16 -563 29 -660 19z m-1860 -2288 c222 -110
656 -359 946 -542 l37 -23 -44 -83 c-90 -170 -129 -349 -141 -645 -3 -84 -10
-153 -14 -153 -37 0 -527 119 -724 175 -268 77 -499 168 -554 218 -97 90 -89
312 26 662 58 178 135 349 201 448 24 36 29 38 61 33 20 -3 112 -44 206 -90z
m4477 57 c88 -133 197 -400 253 -622 62 -246 53 -414 -27 -488 -52 -49 -285
-141 -548 -216 -207 -60 -692 -177 -729 -177 -4 0 -11 66 -14 148 -13 302 -51
480 -141 650 l-44 83 52 32 c434 276 1078 627 1152 627 14 0 30 -14 46 -37z
m-3133 -858 c59 -42 134 -99 166 -128 l58 -51 -6 -181 c-7 -202 -20 -296 -46
-340 l-17 -30 -120 1 c-99 0 -354 29 -354 40 0 1 24 49 54 106 30 57 68 144
85 193 32 97 61 283 61 396 0 38 3 69 6 69 3 0 54 -34 113 -75z m1644 -47 c12
-225 49 -361 147 -544 27 -52 50 -96 50 -98 0 -11 -254 -40 -354 -40 l-120 -1
-17 30 c-26 44 -39 139 -46 341 l-6 180 59 52 c57 50 262 201 275 202 3 0 9
-55 12 -122z m-3457 -838 c892 -432 2090 -611 3319 -494 602 57 1156 186 1605
376 141 60 354 170 448 231 45 30 82 49 82 42 0 -32 -87 -315 -137 -445 -155
-406 -359 -727 -643 -1011 -324 -325 -675 -537 -1140 -687 -332 -107 -616
-152 -960 -152 -344 0 -628 45 -960 152 -953 308 -1598 991 -1881 1992 -21 76
-39 144 -39 151 0 8 36 -8 83 -37 45 -27 146 -81 223 -118z"/>
</g>
</svg>
