<?xml version="1.0" encoding="UTF-8" standalone="no"?>
<!DOCTYPE svg PUBLIC "-//W3C//DTD SVG 1.1//EN" "http://www.w3.org/Graphics/SVG/1.1/DTD/svg11.dtd">
<svg width="100%" height="100%" viewBox="0 0 64 64" version="1.1" xmlns="http://www.w3.org/2000/svg" xmlns:xlink="http://www.w3.org/1999/xlink" xml:space="preserve" xmlns:serif="http://www.serif.com/" style="fill-rule:evenodd;clip-rule:evenodd;stroke-linejoin:round;stroke-miterlimit:2;">
    <g transform="matrix(1.24646,0,0,1.24646,-2.03696,-2.54009)">
        <circle cx="27.307" cy="27.711" r="24.871" style="fill:white;"/>
    </g>
    <g transform="matrix(1.16604,0,0,1.16604,0.158975,-0.311693)">
        <circle cx="27.307" cy="27.711" r="24.871"/>
    </g>
    <g transform="matrix(1.08562,0,0,1.08562,2.35491,1.9167)">
        <circle cx="27.307" cy="27.711" r="24.871" style="fill:rgb(221,68,68);"/>
    </g>
    <path d="M32,44.275C14.641,44.275 5.638,37.864 5.638,37.864C10.784,59.872 32,59 32,59C32,59 53.216,59.872 58.362,37.864C58.362,37.864 50.471,44.275 32,44.275" style="fill:rgb(235,235,235);"/>
    <g transform="matrix(1,0,0,1,-1.06976,2)">
        <g transform="matrix(-1,0,0,1,64.2629,0.394162)">
            <path d="M36.185,30.589C36.185,30.589 36.035,34.599 36.672,35.498C37.309,36.397 52.972,33.025 54.958,31.189C56.944,29.353 53.347,21.222 52.597,20.772C51.848,20.322 36.672,29.353 36.185,30.589Z" style="fill:rgb(235,235,235);"/>
        </g>
        <path d="M22.824,27.187C22.824,27.187 21.692,28.838 21.384,30.927C21.003,33.508 21.123,35.228 21.123,35.228L23.149,35.607C23.149,35.607 24.416,33.625 24.734,32C25.083,30.215 25.014,28.596 25.014,28.596L22.824,27.187Z"/>
        <path d="M12.187,20.128C12.187,20.128 20.858,24.021 25.886,27.567C27.036,28.379 28.093,29.226 28.093,29.226L29.641,21.868L27.596,21.15L26.482,25.185C26.482,25.185 14.957,19.071 13.569,19.143C12.18,19.215 12.187,20.128 12.187,20.128Z"/>
    </g>
    <g transform="matrix(-1,0,0,1,65.0698,2)">
        <g transform="matrix(-1,0,0,1,64.2629,0.394162)">
            <path d="M36.185,30.589C36.185,30.589 36.035,34.599 36.672,35.498C37.309,36.397 52.972,33.025 54.958,31.189C56.944,29.353 53.347,21.222 52.597,20.772C51.848,20.322 36.672,29.353 36.185,30.589Z" style="fill:rgb(235,235,235);"/>
        </g>
        <path d="M22.824,27.187C22.824,27.187 21.692,28.838 21.384,30.927C21.003,33.508 21.123,35.228 21.123,35.228L23.149,35.607C23.149,35.607 24.416,33.625 24.734,32C25.083,30.215 25.014,28.596 25.014,28.596L22.824,27.187Z"/>
        <path d="M12.187,20.128C12.187,20.128 20.858,24.021 25.886,27.567C27.036,28.379 28.093,29.226 28.093,29.226L29.641,21.868L27.596,21.15L26.482,25.185C26.482,25.185 14.957,19.071 13.569,19.143C12.18,19.215 12.187,20.128 12.187,20.128Z"/>
    </g>
</svg>
